<?xml version="1.0" encoding="utf-8"?>
<!-- Generator: Adobe Illustrator 22.1.0, SVG Export Plug-In . SVG Version: 6.00 Build 0)  -->
<svg version="1.1" id="Layer_1" xmlns="http://www.w3.org/2000/svg" xmlns:xlink="http://www.w3.org/1999/xlink" x="0px" y="0px"
	 width="329.2670898px" height="55.3515015px" viewBox="0 0 329.2670898 55.3515015"
	 style="enable-background:new 0 0 329.2670898 55.3515015;" xml:space="preserve">
<style type="text/css">
	.st0{fill:#FFFFFF;}
	.st1{fill-rule:evenodd;clip-rule:evenodd;fill:#C21978;}
	.st2{fill-rule:evenodd;clip-rule:evenodd;fill:#A450AF;}
	.st3{fill-rule:evenodd;clip-rule:evenodd;fill:#6E4BAC;}
	.st4{fill-rule:evenodd;clip-rule:evenodd;fill:#1C3562;}
	.st5{fill-rule:evenodd;clip-rule:evenodd;fill:#AEDAE7;}
	.st6{fill-rule:evenodd;clip-rule:evenodd;fill:#61B15F;}
	.st7{fill-rule:evenodd;clip-rule:evenodd;fill:#DADD31;}
	.st8{fill-rule:evenodd;clip-rule:evenodd;fill:#F2DE38;}
	.st9{fill-rule:evenodd;clip-rule:evenodd;fill:#DA8720;}
	.st10{fill-rule:evenodd;clip-rule:evenodd;fill:#BE3024;}
</style>
<path class="st0" d="M296.7080688,39.4594116c-0.6987915,0.3292847-1.3370972,0.4960327-1.9187622,0.4960327
	c-0.8756104,0-1.3135986-0.2398071-1.3135986-0.7228394c0-0.1635742,0.0335083-0.4067993,0.1004028-0.7296753
	c0.0634766-0.3270874,0.0968628-0.5703125,0.0968628-0.7335815c0-0.1097412-0.0437012-0.2432251-0.1272583-0.3995972
	c0.8424683-0.3068237,1.5545044-0.4598389,2.1327515-0.4598389c0.9525146,0,1.4304199,0.3599854,1.4304199,1.0828247
	C297.1088867,38.3127441,296.9754028,38.7994385,296.7080688,39.4594116 M292.2924805,41.9850464
	c0.9025879-0.3296509,1.7211914-0.4963379,2.4598999-0.4963379c0.993042,0,1.4877319,0.3764038,1.4877319,1.1326904
	c0,0.3436279-0.0638428,0.756897-0.187439,1.2399292c-1.0830688,4.2290039-1.6242676,7.1115112-1.6242676,8.6408081
	c0,0.7401733,0.1939087,1.366272,0.5847778,1.8731689c-0.7553711,0.4765015-1.4906616,0.7131958-2.2027588,0.7131958
	c-1.2801514,0-1.9185181-0.5899048-1.9185181-1.7666016c0-1.1391602,0.2807007-2.8258667,0.8424683-5.0583496
	c0.5615234-2.2329102,0.8422241-3.9189453,0.8422241-5.0552979
	C292.5765991,42.7983398,292.4829712,42.3881226,292.2924805,41.9850464z M280.9714966,51.2126465
	c0.4844971,1.5097656,1.3200684,2.2628784,2.507019,2.2628784c1.206665,0,1.8112793-0.623291,1.8112793-1.8731079
	c0-0.6599121-0.9724731-1.7061768-2.9146118-3.145874c-0.6782837-0.6497192-1.0195923-1.4363403-1.0195923-2.359314
	c0-1.5097046,0.5482178-2.6959839,1.6450195-3.555481c1.0056763-0.793396,2.2860718-1.1896973,3.8369141-1.1896973
	c2.0054932,0,3.0081787,0.3795776,3.0081787,1.1429443c0,0.6633301-0.4711914,1.3362427-1.4105835,2.0197144
	c-0.8019409-1.0664062-1.5706177-1.5996094-2.2994385-1.5996094c-1.032959,0-1.5474854,0.5462036-1.5474854,1.6392212
	c0,0.5731812,0.34729,1.116272,1.0460205,1.6300049l1.9286499,1.4161987
	c0.6985474,0.6697998,1.0460205,1.4862061,1.0460205,2.4494019c0,1.6528931-0.6049194,2.9456787-1.8112793,3.8751831
	c-1.0968018,0.8599854-2.4968262,1.2901001-4.2017822,1.2901001c-2.2626343,0-3.3956299-0.5365601-3.3956299-1.6094971
	C279.2001953,52.7955322,279.791687,51.9993286,280.9714966,51.2126465z M275.5065918,44.9246216
	c-0.7553711-1.0166016-1.5075073-1.5233765-2.2495728-1.5233765c-0.9360352,0-1.7212524,1.039978-2.3598022,3.1228638
	c-0.5114136,1.649231-0.7654419,3.0892334-0.7654419,4.3251343c0,0.9498901,0.2141113,1.4263916,0.6448975,1.4263916
	c0.4581299,0,1.3170166-1.0864868,2.5773315-3.2590332C274.2800903,47.4273071,274.9984131,46.0641479,275.5065918,44.9246216z
	 M274.510498,49.8829346c-1.9586792,3.5560913-3.7669067,5.3322754-5.4249268,5.3322754
	c-1.7180786,0-2.5772705-1.203064-2.5772705-3.612793c0-2.2191772,0.6085815-4.3953857,1.8220825-6.5316162
	c1.4171143-2.479187,3.1550293-3.71875,5.2175293-3.71875c0.9558105,0,1.7982788,0.2400513,2.5270996,0.7231445
	c0.3604736-0.3968506,0.8519897-0.5963745,1.4804688-0.5963745c0.7554321,0,1.4973145,0.1732178,2.2225952,0.5161133
	c-0.4979858,1.0031738-0.9591675,2.6160889-1.3903809,4.8424683c-0.3977051,2.0956421-0.5980835,3.7822266-0.5980835,5.0587158
	c0,0.9296875,0.166687,1.7457886,0.4978027,2.4487915c-0.5748901,0.4968872-1.2333984,0.7435913-1.9786377,0.7435913
	c-1.3772583,0-2.0658569-0.7597046-2.0658569-2.2763062C274.2429199,52.0324097,274.333313,51.0562134,274.510498,49.8829346z
	 M262.1397705,44.9246216c-0.7553711-1.0166016-1.5073853-1.5233765-2.2494507-1.5233765
	c-0.9360352,0-1.7212524,1.039978-2.3599243,3.1228638c-0.5111084,1.649231-0.7653198,3.0892334-0.7653198,4.3251343
	c0,0.9498901,0.2142944,1.4263916,0.6451416,1.4263916c0.4580688,0,1.3169556-1.0864868,2.5769653-3.2590332
	C260.913269,47.4273071,261.631897,46.0641479,262.1397705,44.9246216z M261.1439819,49.8829346
	c-1.9586792,3.5560913-3.7669067,5.3322754-5.4251862,5.3322754c-1.717804,0-2.5769958-1.203064-2.5769958-3.612793
	c0-2.2191772,0.6083069-4.3953857,1.8218079-6.5316162c1.4170685-2.479187,3.1552887-3.71875,5.2174835-3.71875
	c0.9561157,0,1.7982788,0.2400513,2.5270996,0.7231445c0.3607788-0.3968506,0.8521118-0.5963745,1.480835-0.5963745
	c0.7553711,0,1.4972534,0.1732178,2.2223511,0.5161133c-0.4978027,1.0031738-0.9592896,2.6160889-1.3900757,4.8424683
	c-0.3980103,2.0956421-0.5983887,3.7822266-0.5983887,5.0587158c0,0.9296875,0.1668701,1.7457886,0.4979858,2.4487915
	c-0.5750732,0.4968872-1.2332764,0.7435913-1.9785767,0.7435913c-1.3773193,0-2.065918-0.7597046-2.065918-2.2763062
	C260.8764038,52.0324097,260.9669189,51.0562134,261.1439819,49.8829346z M244.8257904,46.6738281
	c1.7583923-3.5490112,3.5433044-5.3217773,5.3580933-5.3217773c1.3770142,0,2.065918,0.696167,2.065918,2.0894775
	c0,1.0164795-0.2409973,2.5095215-0.7189026,4.4851685c-0.4812927,1.9763184-0.7220154,3.4727173-0.7220154,4.4859009
	c0,0.8027344,0.1970215,1.4558105,0.588501,1.9627075c-0.7520752,0.4765015-1.4909973,0.7131958-2.2229004,0.7131958
	c-1.2268982,0-1.8416748-0.5899048-1.8416748-1.7666016c0-0.8730469,0.1303711-1.9527588,0.3911743-3.2422485
	c0.6616211-3.2456055,0.9890137-5.0317383,0.9890137-5.3586426c0-0.3565674-0.1100159-0.5365601-0.3305054-0.5365601
	c-0.6553955,0-1.6514893,1.4195557-2.9985046,4.2556763c-1.2934875,2.7260742-1.9386902,4.555481-1.9386902,5.4849854
	c0,0.25,0.0570068,0.5430908,0.1672974,0.8898315c-0.6653137,0.1834106-1.3104858,0.2735596-1.9287109,0.2735596
	c-1.1230774,0-1.6846008-0.4030762-1.6846008-1.2098999c0-0.4030762,0.0802002-0.9328613,0.2440186-1.5827637l0.3945923-1.5631104
	c0.9190063-3.6688232,1.380188-6.2617188,1.380188-7.7711182c0-0.3565674-0.0665894-0.6967773-0.1972961-1.0130615
	c0.8691101-0.3068237,1.6177063-0.4598389,2.2530212-0.4598389c0.9994812,0,1.4974976,0.4133301,1.4974976,1.239624
	C245.5713043,43.1846313,245.3238983,44.4979248,244.8257904,46.6738281z M230.3462067,54.8149414
	c-0.6418152,0.1834106-1.2600098,0.2735596-1.8618164,0.2735596c-0.9794006,0-1.4671936-0.383606-1.4671936-1.1535034
	c0-0.3097534,0.1068115-0.949585,0.3240051-1.9127808c0.9393921-4.2119751,1.4073792-6.6777954,1.4073792-7.401001
	c0-0.2401123-0.0804749-0.3599854-0.2443848-0.3599854c-0.5679932,0-1.5606995,1.3461914-2.9747009,4.0354004
	c-1.4169922,2.6929932-2.1257019,4.5521851-2.1257019,5.5819702c0,0.2866211,0.0535889,0.5964355,0.1636047,0.9363403
	c-0.6650085,0.1834106-1.2763977,0.2735596-1.8315125,0.2735596c-1.0694885,0-1.6044006-0.4030762-1.6044006-1.2098999
	c0-0.4234619,0.0771179-0.9498901,0.2339172-1.5827637c1.1900024-4.7889404,1.7850037-7.9111938,1.7850037-9.3612061
	c0-0.3395996-0.0700989-0.6697998-0.2073059-0.986084c0.8691101-0.3068237,1.5976868-0.4598389,2.1860962-0.4598389
	c0.9325867,0,1.4002991,0.4099121,1.4002991,1.2296143c0,0.5264282-0.0935059,1.1896973-0.2839966,1.9829102l-0.471405,1.9725952
	c2.0288086-3.5490112,3.8641968-5.3217773,5.5018005-5.3217773c1.1766052,0,1.764801,0.699585,1.764801,2.0990601
	c0,0.3832397-0.0733948,0.9197998-0.2171021,1.6101074c-0.1571045,0.7496948-0.2441101,1.2863159-0.2641907,1.6126099
	c2.0423889-3.5490112,3.9007874-5.3217773,5.5720825-5.3217773c1.1931152,0,1.7915039,0.6530762,1.7915039,1.9627686
	c0,0.3897095-0.1137085,1.1431885-0.341095,2.2559814c-0.7652893,3.722229-1.1463013,5.9949951-1.1463013,6.8213501
	c0,0.8101807,0.1939087,1.4697876,0.5783081,1.9831543c-0.7455139,0.4765015-1.4573059,0.7131958-2.1362,0.7131958
	c-1.1596985,0-1.7413025-0.5899048-1.7413025-1.7666016c0-0.9430542,0.1439819-2.1195068,0.4313965-3.5253906
	c0.638092-3.1226807,0.9558105-4.848999,0.9558105-5.175293c0-0.2401123-0.0802002-0.3599854-0.2440186-0.3599854
	c-0.5615845,0-1.5507812,1.3461914-2.9647827,4.0354004c-1.4170227,2.6929932-2.1260071,4.5521851-2.1260071,5.5819702
	C230.188797,54.1652222,230.242691,54.4750366,230.3462067,54.8149414z M215.6562042,36.9297485
	c0.7250977-0.2029419,1.336792-0.3033447,1.8313904-0.3033447c1.0062866,0,1.5075073,0.3869019,1.5075073,1.1633301
	c0,0.2863159-0.0836182,0.8594971-0.2539978,1.7260742c-0.7720947,0.293335-1.4507141,0.4396362-2.0355225,0.4396362
	c-0.7454834,0-1.1165771-0.2832031-1.1165771-0.8495483c0-0.1635742,0.0334778-0.4033813,0.0968933-0.7262573
	c0.0638123-0.3237305,0.0969849-0.5668945,0.0969849-0.7268066
	C215.7828827,37.4229126,215.7391815,37.1828003,215.6562042,36.9297485z M210.6354828,36.9297485
	c0.7219238-0.2029419,1.3305054-0.3033447,1.8218079-0.3033447c1.0125122,0,1.517395,0.3869019,1.517395,1.1633301
	c0,0.2863159-0.0836792,0.8594971-0.2539978,1.7260742c-0.7721863,0.293335-1.4505005,0.4396362-2.0390015,0.4396362
	c-0.7451782,0-1.1163025-0.2832031-1.1163025-0.8495483c0-0.1635742,0.0332031-0.4033813,0.1004028-0.7230835
	c0.0632019-0.3167114,0.0969238-0.5601807,0.0969238-0.7197876
	C210.7627106,37.4263306,210.719101,37.1828003,210.6354828,36.9297485z M215.7664948,41.7619019
	c0.6213074-0.1833496,1.2600098-0.2731934,1.918396-0.2731934c1.1231079,0,1.6846924,0.4033203,1.6846924,1.2095337
	c0,0.4433594-0.0770874,0.9699707-0.2341919,1.5831909l-0.4010925,1.5623779
	c-0.6083069,2.3632812-0.9124146,4.3793335-0.9124146,6.0523071c0,0.9362793,0.1703186,1.7526245,0.511322,2.4487915
	c-0.5881958,0.4968872-1.2532043,0.7435913-1.9888,0.7435913c-1.3804016,0-2.0690002-0.756897-2.0690002-2.2660522
	c0-0.8132324,0.0935974-1.786438,0.2774963-2.9194336c-1.7781067,3.5490112-3.5631104,5.3217773-5.3580017,5.3217773
	c-1.3771057,0-2.0656128-0.6998901-2.0656128-2.0990601c0-1.1469116,0.2772217-2.8394165,0.8287964-5.0856323
	c0.5516968-2.2461548,0.8258057-3.9420776,0.8258057-5.088501c0-0.3497925-0.0668945-0.6867676-0.2037964-1.0030518
	c0.8656921-0.3068237,1.6207886-0.4598389,2.259491-0.4598389c0.9992065,0,1.4972229,0.4133301,1.4972229,1.239624
	c0,0.2796631-0.0901184,0.8197021-0.2738037,1.6193848c-0.9326172,4.1054077-1.3972168,6.6049805-1.3972168,7.4979248
	c0,0.3565674,0.1069031,0.5365601,0.3240051,0.5365601c0.6452026,0,1.6447144-1.4195557,2.994812-4.2553711
	c1.3005066-2.725708,1.9487915-4.5524292,1.9487915-5.4754028
	C215.9333954,42.4014282,215.8763885,42.1083374,215.7664948,41.7619019z M205.6316986,42.131897
	c-0.5246887-1.6965942-1.513916-2.5460815-2.9681091-2.5460815c-1.6112061,0-2.8578796,1.3259888-3.7399902,3.9824219
	c-0.6452026,1.9527588-0.9698181,3.9451904-0.9698181,5.9747925c0,2.3226929,0.6052246,3.4857788,1.8119202,3.4857788
	c0.4179077,0,0.9492798-0.1362915,1.5942078-0.4099121c0.4379883-1.1329956,0.8123779-2.5122681,1.1264954-4.138855h-0.1939087
	c-0.6618958,0-1.3103943,0.1400757-1.9519043,0.420105c0.1205139-1.1196289,0.4178162-1.8428345,0.9023132-2.1696167
	c0.3977051-0.2664795,1.2066956-0.4000244,2.4300842-0.4000244c0.2809143,0,0.6950989-0.0098877,1.2467041-0.0296631
	c0.5516052-0.0202026,0.9693909-0.0303955,1.2500916-0.0303955c-0.8288879,2.5130005-1.3368835,4.6624756-1.517395,6.4454956
	c-0.1304016,1.2562866-0.8021851,1.8858032-2.0088806,1.8858032c-0.2271118,0-0.5216064-0.0133057-0.8822021-0.0396118
	c-1.139801,0.5263672-2.203125,0.7893677-3.1822205,0.7893677c-1.3905945,0-2.4902039-0.489502-3.2991943-1.4729004
	c-0.758606-0.9262695-1.1363831-2.0927734-1.1363831-3.5058594c0-1.8691406,0.3777771-3.7388916,1.1363831-5.6148071
	c0.8089905-2.0098267,1.9020081-3.6224365,3.2791138-4.8322144c1.560791-1.366272,3.3092041-2.0498047,5.2409973-2.0498047
	c2.4465942,0,3.6699829,0.5836792,3.6699829,1.7463989C207.469986,40.3024292,206.8585968,41.135498,205.6316986,42.131897z
	 M182.9698944,41.7619019c0.6213074-0.1833496,1.2600098-0.2731934,1.9184875-0.2731934
	c1.1231079,0,1.6846008,0.4033203,1.6846008,1.2095337c0,0.4433594-0.0770874,0.9699707-0.2338867,1.5831909l-0.4013062,1.5623779
	c-0.6083984,2.3632812-0.9122009,4.3793335-0.9122009,6.0523071c0,0.9362793,0.1700134,1.7526245,0.5111084,2.4487915
	c-0.5881958,0.4968872-1.2532043,0.7435913-1.9888,0.7435913c-1.3804932,0-2.0690002-0.756897-2.0690002-2.2660522
	c0-0.8132324,0.0935059-1.786438,0.2774963-2.9194336c-1.7781982,3.5490112-3.5632019,5.3217773-5.3580933,5.3217773
	c-1.3770142,0-2.0653076-0.6998901-2.0653076-2.0990601c0-1.1469116,0.2771912-2.8394165,0.8286133-5.0856323
	c0.5515747-2.2461548,0.8256836-3.9420776,0.8256836-5.088501c0-0.3497925-0.0668945-0.6867676-0.2037964-1.0030518
	c0.8656921-0.3068237,1.6207886-0.4598389,2.259491-0.4598389c0.9992065,0,1.4974976,0.4133301,1.4974976,1.239624
	c0,0.2796631-0.0903931,0.8197021-0.2740784,1.6193848c-0.9326172,4.1054077-1.3972168,6.6049805-1.3972168,7.4979248
	c0,0.3565674,0.1069031,0.5365601,0.3240051,0.5365601c0.6452026,0,1.6447144-1.4195557,2.994812-4.2553711
	c1.3005981-2.725708,1.9487915-4.5524292,1.9487915-5.4754028C183.136795,42.4014282,183.0799103,42.1083374,182.9698944,41.7619019
	z M166.0067902,47.5800171c2.70401-3.9685059,4.7597046-5.9550171,6.1701965-5.9550171
	c0.7755127,0,1.2299194,0.7597046,1.360321,2.2762451c-1.3504028,0-2.9713135,1.1695557-4.8665161,3.5126953
	c0.3611145,1.1593628,0.9122009,2.2855835,1.6542969,3.3789062c0.922699,1.3526611,1.8453979,2.1427002,2.7709045,2.3623657
	c-0.9190063,1.2901001-1.815094,1.9332886-2.6805115,1.9332886c-1.327179,0-2.837677-2.2830811-4.5359802-6.8448486
	c-0.6448975,3.0154419-0.9691162,4.9217529-0.9691162,5.7217407c0,0.2333374,0.039917,0.5062256,0.1170044,0.8197021
	c-0.6385803,0.2030029-1.2599792,0.3034058-1.8583984,0.3034058c-1.1499939,0-1.7247925-0.3968506-1.7247925-1.1896973
	c0-0.4970093,0.0935059-1.1433105,0.2839966-1.9431763c0.1036987-0.4293823,0.254303-1.0726318,0.4512939-1.9259033
	l1.4207153-7.0883179c0.2805786-1.3959961,0.4212036-2.4893799,0.4212036-3.269165
	c0-0.2466431-0.0368042-0.5264282-0.1105042-0.8399048c0.7454834-0.4495239,1.4674988-0.6726074,2.1658936-0.6726074
	c1.0127869,0,1.520813,0.4259644,1.520813,1.2791748C167.5976105,39.9721069,167.066391,42.6852417,166.0067902,47.5800171z
	 M160.9730072,39.4594116c-0.6984253,0.3292847-1.3370972,0.4960327-1.9185181,0.4960327
	c-0.8755798,0-1.3137817-0.2398071-1.3137817-0.7228394c0-0.1635742,0.0333862-0.4067993,0.1002808-0.7296753
	c0.0638123-0.3270874,0.0970154-0.5703125,0.0970154-0.7335815c0-0.1097412-0.043396-0.2432251-0.1270142-0.3995972
	c0.8424072-0.3068237,1.5541992-0.4598389,2.1325073-0.4598389c0.9523926,0,1.430603,0.3599854,1.430603,1.0828247
	C161.3740997,38.3127441,161.2402802,38.7994385,160.9730072,39.4594116z M156.557785,41.9850464
	c0.9023132-0.3296509,1.7212219-0.4963379,2.4598999-0.4963379c0.9927063,0,1.4873047,0.3764038,1.4873047,1.1326904
	c0,0.3436279-0.0635071,0.756897-0.1872864,1.2399292c-1.0829163,4.2290039-1.6242981,7.1115112-1.6242981,8.6408081
	c0,0.7401733,0.1938782,1.366272,0.5847778,1.8731689c-0.7554016,0.4765015-1.4904785,0.7131958-2.2024841,0.7131958
	c-1.2800903,0-1.9185181-0.5899048-1.9185181-1.7666016c0-1.1391602,0.2806091-2.8258667,0.8424072-5.0583496
	c0.561615-2.2329102,0.8421936-3.9189453,0.8421936-5.0552979C156.8417816,42.7983398,156.7483063,42.3881226,156.557785,41.9850464
	z M147.0316925,45.3741455h-0.4414062c-0.7451782,0-1.4736938,0.1434937-2.1925964,0.4299927
	c-0.0330811-0.3135376-0.0500793-0.5400391-0.0500793-0.6834106c0-0.8461304,0.3210754-1.3823853,0.9594727-1.6126099
	c0.3209229-0.1165161,1.0295105-0.1732178,2.1257019-0.1732178c0.3509216-1.7894897,0.5281067-2.942688,0.5281067-3.4556885
	c0-0.4099121-0.0935974-0.8200684-0.2840881-1.2235107c0.8889771-0.3295898,1.7081909-0.4959717,2.4602051-0.4959717
	c0.9924011,0,1.4870911,0.3760986,1.4870911,1.1329956c0,0.4765015-0.1102905,1.1494141-0.3338928,2.0194092l-0.5080261,2.0227661
	h1.0760193c0.8691101,0,1.8117065-0.0969849,2.8312988-0.2937012c-0.0870056,1.5765991-0.9963989,2.3633423-2.730896,2.3633423
	c-0.1772156,0-0.4414062-0.0068359-0.7920227-0.0170898c-0.3545837-0.0099487-0.6184998-0.0133057-0.7956848-0.0133057
	c-0.5983887,2.8490601-0.8992004,4.7652588-0.8992004,5.7483521c0,1.0298462,0.3778992,1.5429077,1.1365051,1.5429077
	c0.6651917,0,1.4537964-0.3299561,2.3666077-0.992981c0.2171021,0.4163818,0.3239746,0.7832031,0.3239746,1.1032715
	c0,0.7531128-0.4979858,1.369751-1.4872742,1.8428345c-0.8122253,0.3828735-1.6413269,0.5764771-2.4903259,0.5764771
	c-2.1658936,0-3.2487793-1.0629883-3.2487793-3.1922607C146.072403,50.6026001,146.3932953,48.3933105,147.0316925,45.3741455z
	 M135.2094879,51.2126465c0.4844055,1.5097656,1.3200989,2.2628784,2.5067139,2.2628784
	c1.2066956,0,1.8115845-0.623291,1.8115845-1.8731079c0-0.6599121-0.9727783-1.7061768-2.9145813-3.145874
	c-0.6783142-0.6497192-1.0196228-1.4363403-1.0196228-2.359314c0-1.5097046,0.5482178-2.6959839,1.6447144-3.555481
	c1.006012-0.793396,2.2861023-1.1896973,3.8371887-1.1896973c2.0053101,0,3.0081177,0.3795776,3.0081177,1.1429443
	c0,0.6633301-0.4710999,1.3362427-1.4105225,2.0197144c-0.8021851-1.0664062-1.5708923-1.5996094-2.2996826-1.5996094
	c-1.0327148,0-1.5475159,0.5462036-1.5475159,1.6392212c0,0.5731812,0.3476257,1.116272,1.0460205,1.6300049l1.9289856,1.4161987
	c0.6985168,0.6697998,1.0460205,1.4862061,1.0460205,2.4494019c0,1.6528931-0.6052246,2.9456787-1.811615,3.8751831
	c-1.0964966,0.8599854-2.4967957,1.2901001-4.2015076,1.2901001c-2.2628784,0-3.3959045-0.5365601-3.3959045-1.6094971
	C133.4378815,52.7955322,134.0294037,51.9993286,135.2094879,51.2126465z M133.9358978,39.4594116
	c-0.6985168,0.3292847-1.3370972,0.4960327-1.9184875,0.4960327c-0.8756104,0-1.3138123-0.2398071-1.3138123-0.7228394
	c0-0.1635742,0.0336914-0.4067993,0.1003113-0.7296753c0.0637817-0.3270874,0.0968933-0.5703125,0.0968933-0.7335815
	c0-0.1097412-0.0433044-0.2432251-0.1268921-0.3995972c0.8423767-0.3068237,1.5541992-0.4598389,2.1324768-0.4598389
	c0.9526978,0,1.430603,0.3599854,1.430603,1.0828247C134.3369904,38.3127441,134.2032013,38.7994385,133.9358978,39.4594116z
	 M129.5207062,41.9850464c0.9021912-0.3296509,1.7211914-0.4963379,2.4598999-0.4963379
	c0.9926758,0,1.4872742,0.3764038,1.4872742,1.1326904c0,0.3436279-0.0634766,0.756897-0.1873779,1.2399292
	c-1.0827942,4.2290039-1.6242065,7.1115112-1.6242065,8.6408081c0,0.7401733,0.1939087,1.366272,0.5848083,1.8731689
	c-0.7555237,0.4765015-1.490509,0.7131958-2.2026062,0.7131958c-1.2800903,0-1.918396-0.5899048-1.918396-1.7666016
	c0-1.1391602,0.2805786-2.8258667,0.8424072-5.0583496c0.5615845-2.2329102,0.8421936-3.9189453,0.8421936-5.0552979
	C129.8047028,42.7983398,129.7111053,42.3881226,129.5207062,41.9850464z M121.264801,54.795105
	c-0.6118011,0.1834106-1.2602997,0.2728882-1.9387054,0.2728882c-1.1096954,0-1.6647949-0.399353-1.6647949-1.199585
	c0-0.449585,0.2072906-1.4992065,0.6185913-3.145874c0.9260101-3.715332,1.3906097-6.3082275,1.3906097-7.77771
	c0-0.3264771-0.0703125-0.6564941-0.2075043-0.986084c0.8694-0.3067017,1.6177979-0.4603882,2.2529907-0.4603882
	c1.006012,0,1.5075073,0.413269,1.5075073,1.2401733c0,0.5332031-0.2509003,1.8461914-0.7554016,3.9353027
	c1.9487915-3.5288086,3.576416-5.2919922,4.8865967-5.2919922c0.6985168,0,1.0497131,0.3302002,1.0497131,0.9868164
	c0,1.2494507-0.5984192,2.559082-1.7918091,3.9321899c-0.307312-0.4437256-0.5881958-0.663147-0.8421936-0.663147
	c-0.8824158,0-1.9051208,1.1594238-3.0651093,3.4753418c-1.0728912,2.1427002-1.6074982,3.7391968-1.6074982,4.7926025
	C121.0977936,54.1550293,121.1544952,54.4487305,121.264801,54.795105z M113.2863922,41.7619019
	c0.6215973-0.1833496,1.2600098-0.2731934,1.918396-0.2731934c1.1231079,0,1.6847076,0.4033203,1.6847076,1.2095337
	c0,0.4433594-0.0771027,0.9699707-0.233902,1.5831909l-0.4013977,1.5623779
	c-0.6083069,2.3632812-0.9122009,4.3793335-0.9122009,6.0523071c0,0.9362793,0.1703949,1.7526245,0.5110931,2.4487915
	c-0.5881958,0.4968872-1.2531891,0.7435913-1.9888,0.7435913c-1.3800964,0-2.0690002-0.756897-2.0690002-2.2660522
	c0-0.8132324,0.0936127-1.786438,0.2775116-2.9194336c-1.7781067,3.5490112-3.5631104,5.3217773-5.3577118,5.3217773
	c-1.3773956,0-2.0655975-0.6998901-2.0655975-2.0990601c0-1.1469116,0.2772064-2.8394165,0.8285065-5.0856323
	c0.5516968-2.2461548,0.8258057-3.9420776,0.8258057-5.088501c0-0.3497925-0.0669098-0.6867676-0.2038116-1.0030518
	c0.8657074-0.3068237,1.6208038-0.4598389,2.2595062-0.4598389c0.9991913,0,1.4974976,0.4133301,1.4974976,1.239624
	c0,0.2796631-0.0903931,0.8197021-0.2740936,1.6193848c-0.9326019,4.1054077-1.3972015,6.6049805-1.3972015,7.4979248
	c0,0.3565674,0.1069031,0.5365601,0.3239899,0.5365601c0.6452026,0,1.6446991-1.4195557,2.994812-4.2553711
	c1.3004913-2.725708,1.9487915-4.5524292,1.9487915-5.4754028
	C113.4532928,42.4014282,113.3963013,42.1083374,113.2863922,41.7619019z M93.0639954,54.4920044
	c-0.8890076,0.3963013-1.6846008,0.5964966-2.3896027,0.5964966c-0.912796,0-1.3705902-0.3135986-1.3705902-0.9362793
	c0-0.416687,0.086792-0.9564209,0.2641907-1.6231079c1.5744019-5.9215698,2.3596039-10.0108643,2.3596039-12.2703857
	c0-0.4564209-0.126709-0.8829956-0.3809967-1.2792969c1.0694885-0.546814,2.0556946-0.8197021,2.9579926-0.8197021
	c0.8291016,0,1.2438049,0.3026733,1.2438049,0.9058838c0,0-0.1772003,0.8864136-0.5283966,2.6564331l-0.8524017,4.2850952
	c4.0009003-5.2316284,6.8822937-7.8474121,8.6470947-7.8474121c0.9057007,0,1.3603973,0.4232178,1.3603973,1.2692871
	c0,0.1032104-0.0502014,0.503479-0.1470947,1.199585h-0.5178986c0,0-0.0536041,0-0.1573029,0
	c-0.822403,0-1.6847076,0.3235474-2.5868988,0.9667358c-0.6855011,0.4928589-1.4371948,1.2094727-2.2595062,2.1460571
	c-0.6085968,0.7330322-1.2166901,1.4660034-1.8215942,2.1929321c2.0554047,4.4154663,3.8970947,6.6245117,5.5216064,6.6245117
	h0.1068878c-0.3007965,1.7761841-1.0964966,2.6659546-2.3898926,2.6659546c-1.1999054,0-2.4533997-1.0759888-3.7568054-3.2320557
	c-0.8956909-1.4628906-1.6411896-3.0696411-2.2330933-4.8121338c-0.7718964,3.5791016-1.1562042,5.7515259-1.1562042,6.5112305
	C92.9772949,53.8954468,93.0075989,54.1618042,93.0639954,54.4920044z M77.9626923,44.9246216
	c-0.7554016-1.0166016-1.5072021-1.5233765-2.2492981-1.5233765c-0.9360046,0-1.7214966,1.039978-2.3598022,3.1228638
	c-0.5113983,1.649231-0.7653961,3.0892334-0.7653961,4.3251343c0,0.9498901,0.2140045,1.4263916,0.6448975,1.4263916
	c0.4580994,0,1.3170013-1.0864868,2.577301-3.2590332C76.7361908,47.4273071,77.4546967,46.0641479,77.9626923,44.9246216z
	 M76.9668884,49.8829346c-1.9586945,3.5560913-3.7669983,5.3322754-5.4249878,5.3322754
	c-1.7180023,0-2.5772095-1.203064-2.5772095-3.612793c0-2.2191772,0.6085968-4.3953857,1.8220978-6.5316162
	c1.4170074-2.479187,3.155014-3.71875,5.2174072-3.71875c0.9559021,0,1.7982941,0.2400513,2.5267944,0.7231445
	c0.3609009-0.3968506,0.8521118-0.5963745,1.4809113-0.5963745c0.7553864,0,1.4971924,0.1732178,2.2225952,0.5161133
	c-0.4980011,1.0031738-0.9595032,2.6160889-1.3903961,4.8424683c-0.3977051,2.0956421-0.5980988,3.7822266-0.5980988,5.0587158
	c0,0.9296875,0.166687,1.7457886,0.4977875,2.4487915c-0.5748901,0.4968872-1.2333984,0.7435913-1.9785919,0.7435913
	c-1.3773956,0-2.0659027-0.7597046-2.0659027-2.2763062C76.699295,52.0324097,76.7896881,51.0562134,76.9668884,49.8829346z
	 M60.6486969,46.6738281c1.7583008-3.5490112,3.5433044-5.3217773,5.3580017-5.3217773
	c1.3773956,0,2.0659027,0.696167,2.0659027,2.0894775c0,1.0164795-0.2409058,2.5095215-0.718811,4.4851685
	c-0.4813995,1.9763184-0.7216949,3.4727173-0.7216949,4.4859009c0,0.8027344,0.1970062,1.4558105,0.5881042,1.9627075
	c-0.7519989,0.4765015-1.4909973,0.7131958-2.2229004,0.7131958c-1.2268066,0-1.8417053-0.5899048-1.8417053-1.7666016
	c0-0.8730469,0.1304016-1.9527588,0.3912048-3.2422485c0.6615906-3.2456055,0.9889984-5.0317383,0.9889984-5.3586426
	c0-0.3565674-0.1099091-0.5365601-0.3305054-0.5365601c-0.6553955,0-1.6513977,1.4195557-2.9984894,4.2556763
	c-1.2931061,2.7260742-1.9383087,4.555481-1.9383087,5.4849854c0,0.25,0.0567017,0.5430908,0.1672058,0.8898315
	c-0.6654968,0.1834106-1.3104095,0.2735596-1.9289093,0.2735596c-1.1230927,0-1.6846924-0.4030762-1.6846924-1.2098999
	c0-0.4030762,0.0802917-0.9328613,0.2440948-1.5827637l0.3946075-1.5631104
	c0.9192963-3.6688232,1.3804932-6.2617188,1.3804932-7.7711182c0-0.3565674-0.0668945-0.6967773-0.1972961-1.0130615
	c0.8690948-0.3068237,1.617691-0.4598389,2.2527008-0.4598389c0.9994965,0,1.4974976,0.4133301,1.4974976,1.239624
	C61.3941956,43.1846313,61.1469879,44.4979248,60.6486969,46.6738281z M47.282196,46.6738281
	c1.7583008-3.5490112,3.5429993-5.3217773,5.3580017-5.3217773c1.3770905,0,2.0657043,0.696167,2.0657043,2.0894775
	c0,1.0164795-0.2407074,2.5095215-0.7186127,4.4851685c-0.4813995,1.9763184-0.7220001,3.4727173-0.7220001,4.4859009
	c0,0.8027344,0.1970062,1.4558105,0.5882111,1.9627075c-0.7518005,0.4765015-1.490799,0.7131958-2.222702,0.7131958
	c-1.2268066,0-1.8415985-0.5899048-1.8415985-1.7666016c0-0.8730469,0.1304016-1.9527588,0.391098-3.2422485
	c0.6615906-3.2456055,0.9889984-5.0317383,0.9889984-5.3586426c0-0.3565674-0.1098938-0.5365601-0.3305054-0.5365601
	c-0.6552887,0-1.6513977,1.4195557-2.9984894,4.2556763c-1.2934113,2.7260742-1.9385986,4.555481-1.9385986,5.4849854
	c0,0.25,0.0569916,0.5430908,0.1672974,0.8898315c-0.6652985,0.1834106-1.3105011,0.2735596-1.9287109,0.2735596
	c-1.1230927,0-1.6846924-0.4030762-1.6846924-1.2098999c0-0.4030762,0.0802917-0.9328613,0.2440948-1.5827637l0.3946075-1.5631104
	c0.9189911-3.6688232,1.3802032-6.2617188,1.3802032-7.7711182c0-0.3565674-0.0666046-0.6967773-0.1973114-1.0130615
	c0.8691101-0.3068237,1.6177063-0.4598389,2.253006-0.4598389c0.9994965,0,1.4974976,0.4133301,1.4974976,1.239624
	C48.0276947,43.1846313,47.7801971,44.4979248,47.282196,46.6738281z M42.0547943,39.4594116
	c-0.6987,0.3292847-1.3370972,0.4960327-1.9187012,0.4960327c-0.8757019,0-1.3135986-0.2398071-1.3135986-0.7228394
	c0-0.1635742,0.0334015-0.4067993,0.100296-0.7296753c0.0635071-0.3270874,0.0970001-0.5703125,0.0970001-0.7335815
	c0-0.1097412-0.0437012-0.2432251-0.1272888-0.3995972c0.8424988-0.3068237,1.5544891-0.4598389,2.1327972-0.4598389
	c0.9523926,0,1.4302979,0.3599854,1.4302979,1.0828247C42.4555969,38.3127441,42.3220978,38.7994385,42.0547943,39.4594116z
	 M37.6392975,41.9850464c0.9026031-0.3296509,1.7211914-0.4963379,2.4598999-0.4963379
	c0.9929962,0,1.4875946,0.3764038,1.4875946,1.1326904c0,0.3436279-0.063797,0.756897-0.1873016,1.2399292
	c-1.0831909,4.2290039-1.6242981,7.1115112-1.6242981,8.6408081c0,0.7401733,0.1939087,1.366272,0.5848083,1.8731689
	c-0.7554016,0.4765015-1.4907074,0.7131958-2.2028046,0.7131958c-1.2801056,0-1.9185028-0.5899048-1.9185028-1.7666016
	c0-1.1391602,0.2806091-2.8258667,0.8424988-5.0583496c0.5615082-2.2329102,0.8421021-3.9189453,0.8421021-5.0552979
	C37.9232941,42.7983398,37.8297882,42.3881226,37.6392975,41.9850464z M31.6463013,38.6557007
	c0.8824005-0.3295898,1.7012939-0.4959717,2.4601898-0.4959717c0.9924011,0,1.4869995,0.3760986,1.4869995,1.1329956
	c0,0.4799194-0.1033936,1.1029053-0.3071899,1.8623047l-0.4848022,1.8363037l-1.3036041,6.5820923
	c-0.2536926,1.2758179-0.3809967,2.2526855-0.3809967,2.9287109c0,0.7332764,0.1938934,1.3598022,0.5847931,1.8731689
	c-0.7554016,0.4765015-1.4904938,0.7131958-2.2024994,0.7131958c-1.2801971,0-1.9185028-0.5899048-1.9185028-1.7666016
	c0-0.5595703,0.1638031-1.65625,0.4878082-3.2921753l1.3437042-6.7149048
	c0.3443909-1.7329102,0.5183868-2.8760986,0.5183868-3.4356079C31.9305878,39.4692993,31.836792,39.0591431,31.6463013,38.6557007z
	 M24.9879913,38.6557007c0.8827057-0.3295898,1.7013092-0.4959717,2.4602051-0.4959717
	c0.9927063,0,1.4873047,0.3760986,1.4873047,1.1329956c0,0.4799194-0.1034088,1.1029053-0.307312,1.8623047l-0.4846954,1.8363037
	l-1.3036041,6.5820923c-0.2539978,1.2758179-0.3809967,2.2526855-0.3809967,2.9287109
	c0,0.7332764,0.1939087,1.3598022,0.5848083,1.8731689c-0.7555084,0.4765015-1.490799,0.7131958-2.2024994,0.7131958
	c-1.2804108,0-1.918808-0.5899048-1.918808-1.7666016c0-0.5595703,0.1638031-1.65625,0.4880981-3.2921753l1.3435974-6.7149048
	c0.3442078-1.7329102,0.5182037-2.8760986,0.5182037-3.4356079C25.2722931,39.4692993,25.1784973,39.0591431,24.9879913,38.6557007z
	 M17.8885956,44.9246216c-0.7554016-1.0166016-1.5074005-1.5233765-2.2496033-1.5233765
	c-0.9359894,0-1.7210999,1.039978-2.3598022,3.1228638c-0.5110931,1.649231-0.7652893,3.0892334-0.7652893,4.3251343
	c0,0.9498901,0.2142944,1.4263916,0.6450958,1.4263916c0.4580994,0,1.3170013-1.0864868,2.5769958-3.2590332
	C16.6620941,47.4273071,17.3806915,46.0641479,17.8885956,44.9246216z M16.8927917,49.8829346
	c-1.9586945,3.5560913-3.7668915,5.3322754-5.4252014,5.3322754c-1.7177887,0-2.5769958-1.203064-2.5769958-3.612793
	c0-2.2191772,0.6083069-4.3953857,1.8218079-6.5316162c1.417099-2.479187,3.1552887-3.71875,5.2174988-3.71875
	c0.9561005,0,1.7982941,0.2400513,2.5270996,0.7231445c0.3607941-0.3968506,0.8520966-0.5963745,1.4807892-0.5963745
	c0.7554016,0,1.4972076,0.1732178,2.2224121,0.5161133c-0.4978027,1.0031738-0.9593048,2.6160889-1.390213,4.8424683
	c-0.3978882,2.0956421-0.5983887,3.7822266-0.5983887,5.0587158c0,0.9296875,0.1669922,1.7457886,0.4980927,2.4487915
	c-0.5751953,0.4968872-1.2333984,0.7435913-1.9785919,0.7435913c-1.3773041,0-2.0659027-0.7597046-2.0659027-2.2763062
	C16.6251984,52.0324097,16.7155914,51.0562134,16.8927917,49.8829346z M3.3289948,40.6491089H2.9480896
	c-0.9261017,0-1.8549957,0.2661133-2.7810974,0.7993164C0.0567017,41.0252075,0,40.6785278,0,40.4056396
	c0-1.4794312,0.6985016-2.2164917,2.0956879-2.2164917c0.2741089,0,0.6882019,0.0170898,1.2399139,0.0467529
	c0.55159,0.0338135,0.9626007,0.0499268,1.2366943,0.0499268h3.1723022c1.1295929,0,2.2393036-0.1633301,3.3289948-0.486084
	l0.009903,0.3330078c0,0.0033569,0,0.0331421,0,0.086792c0,0.6229858-0.1938934,1.1930542-0.5881958,1.7061768
	C10.0638885,40.4852295,9.54599,40.765625,8.9376984,40.765625c-0.2205963,0-0.5950012-0.0236206-1.1163025-0.0667114
	c-0.3744965-0.0336914-0.6784058-0.0498047-0.9125061-0.0498047H6.7047882l-1.9651947,9.8503418
	c-0.2608032,1.3098755-0.3912048,2.322998-0.3912048,3.0461426c0,0.2999268,0.0669098,0.6032104,0.2038116,0.9093018
	c-1.0023041,0.4232178-1.8751068,0.633606-2.6138,0.633606c-0.9057007,0-1.3603973-0.3101807-1.3603973-0.9266968
	c0-0.456665,0.1303864-1.2060547,0.3911896-2.2461548l0.5783081-2.3227539L3.3289948,40.6491089z"/>
<path class="st0" d="M320.6900024,54.8149414c-0.6414795,0.1834106-1.2600098,0.2735596-1.8615112,0.2735596
	c-0.9796753,0-1.4674683-0.383606-1.4674683-1.1535034c0-0.3097534,0.1068726-0.949585,0.3242798-1.9127808
	c0.9390869-4.2119751,1.4071045-6.6777954,1.4071045-7.401001c0-0.2401123-0.0802002-0.3599854-0.2441406-0.3599854
	c-0.5679932,0-1.5609741,1.3461914-2.9748535,4.0354004c-1.4171143,2.6929932-2.1257324,4.5521851-2.1257324,5.5819702
	c0,0.2866211,0.0535889,0.5964355,0.1638184,0.9363403c-0.664978,0.1834106-1.2767334,0.2735596-1.8317261,0.2735596
	c-1.069458,0-1.6043701-0.4030762-1.6043701-1.2098999c0-0.4234619,0.0770874-0.9498901,0.2340698-1.5827637
	c1.1896973-4.7889404,1.7850342-7.9111938,1.7850342-9.3612061c0-0.3395996-0.0703125-0.6697998-0.2075195-0.986084
	c0.8693848-0.3068237,1.5975952-0.4598389,2.1862793-0.4598389c0.9324341,0,1.4001465,0.4099121,1.4001465,1.2296143
	c0,0.5264282-0.0936279,1.1896973-0.2841187,1.9829102l-0.4713745,1.9725952
	c2.0290527-3.5490112,3.8641968-5.3217773,5.5020752-5.3217773c1.1763916,0,1.7645874,0.699585,1.7645874,2.0990601
	c0,0.3832397-0.0734863,0.9197998-0.2171631,1.6101074c-0.1570435,0.7496948-0.2440186,1.2863159-0.2642212,1.6126099
	c2.0427246-3.5490112,3.9008179-5.3217773,5.5720825-5.3217773c1.1934204,0,1.7915039,0.6530762,1.7915039,1.9627686
	c0,0.3897095-0.1134033,1.1431885-0.3410034,2.2559814c-0.7653809,3.722229-1.1463013,5.9949951-1.1463013,6.8213501
	c0,0.8101807,0.1937866,1.4697876,0.578186,1.9831543c-0.7451782,0.4765015-1.4572754,0.7131958-2.1358643,0.7131958
	c-1.1596069,0-1.7415771-0.5899048-1.7415771-1.7666016c0-0.9430542,0.1439819-2.1195068,0.4313965-3.5253906
	c0.6383667-3.1226807,0.9558716-4.848999,0.9558716-5.175293c0-0.2401123-0.0802002-0.3599854-0.2440796-0.3599854
	c-0.5612183,0-1.5508423,1.3461914-2.9647217,4.0354004c-1.4171143,2.6929932-2.1256714,4.5521851-2.1256714,5.5819702
	C320.53302,54.1652222,320.5864868,54.4750366,320.6900024,54.8149414 M306.1102905,41.7619019
	c0.621582-0.1833496,1.2600098-0.2731934,1.9185181-0.2731934c1.1231079,0,1.6845703,0.4033203,1.6845703,1.2095337
	c0,0.4433594-0.0770874,0.9699707-0.2337646,1.5831909l-0.401123,1.5623779
	c-0.6085815,2.3632812-0.9124756,4.3793335-0.9124756,6.0523071c0,0.9362793,0.1702881,1.7526245,0.5111084,2.4487915
	c-0.5882568,0.4968872-1.2532349,0.7435913-1.9888306,0.7435913c-1.380188,0-2.0689697-0.756897-2.0689697-2.2660522
	c0-0.8132324,0.0934448-1.786438,0.2774658-2.9194336c-1.7778931,3.5490112-3.5628662,5.3217773-5.3577881,5.3217773
	c-1.3773193,0-2.0656128-0.6998901-2.0656128-2.0990601c0-1.1469116,0.2772217-2.8394165,0.8289185-5.0856323
	c0.5512695-2.2461548,0.8253784-3.9420776,0.8253784-5.088501c0-0.3497925-0.0665894-0.6867676-0.2037964-1.0030518
	c0.8657227-0.3068237,1.6209106-0.4598389,2.2595215-0.4598389c0.9995117,0,1.4974976,0.4133301,1.4974976,1.239624
	c0,0.2796631-0.0903931,0.8197021-0.2741089,1.6193848c-0.9326172,4.1054077-1.3972168,6.6049805-1.3972168,7.4979248
	c0,0.3565674,0.1069336,0.5365601,0.3243408,0.5365601c0.6448975,0,1.6443481-1.4195557,2.9944458-4.2553711
	c1.3005981-2.725708,1.9489136-4.5524292,1.9489136-5.4754028
	C306.2772827,42.4014282,306.2202759,42.1083374,306.1102905,41.7619019z"/>
<polygon class="st1" points="34.7572937,17.8630371 0.0002899,26.8174438 0.0002899,0.0646362 36.5184937,0 "/>
<polygon class="st2" points="72.4149933,23.7327271 43.8698883,14.2174072 43.9599915,0.0646362 73.4700928,0.0646362 "/>
<polygon class="st3" points="106.4910889,19.5366211 80.3002014,17.0809937 80.2545013,0.0646362 108.0930023,0.0646362 "/>
<polygon class="st4" points="139.9750824,19.5366211 113.7361908,22.244812 115.9202881,0.0646362 137.3467865,0.0646362 "/>
<polygon class="st5" points="164.9219818,20.9833984 144.7064056,14.9025269 144.7064056,0.0649414 165.2238922,0.0649414 "/>
<polygon class="st6" points="198.7277069,22.2446289 173.963089,18.0464478 173.2274933,0.0646362 199.248703,0.0646362 "/>
<polygon class="st7" points="236.5569,20.9833984 206.3003998,17.7496948 206.5091095,0.0649414 234.7331085,0.0649414 "/>
<polygon class="st8" points="264.4503784,19.5366211 245.0859833,23.2789307 241.3723907,0.0646362 267.632019,0.0646362 "/>
<polygon class="st9" points="296.210022,29.7445068 273.6008911,18.4405518 274.1176147,0.0646362 294.2344971,0.0646362 "/>
<polygon class="st10" points="329.2670898,22.5025024 304.5957031,26.1053467 302.3104858,0.0649414 328.6936035,0.0649414 "/>
<g>
</g>
<g>
</g>
<g>
</g>
<g>
</g>
<g>
</g>
<g>
</g>
</svg>
