<svg width="520" height="157" viewBox="0 0 520 157" fill="none" xmlns="http://www.w3.org/2000/svg">
<path d="M206.567 82.7V82.531C206.567 74.997 201.489 70.003 195.477 70.003C189.468 70.003 184.474 74.997 184.474 82.531V82.7C184.474 90.234 189.468 95.228 195.477 95.228C201.489 95.228 206.567 90.318 206.567 82.7ZM171.777 65.856C171.777 62.301 174.654 59.424 178.21 59.424C181.765 59.424 184.642 62.301 184.642 65.856V66.448C187.774 62.216 192.092 59.084 198.78 59.084C209.359 59.084 219.432 67.379 219.432 82.531V82.7C219.432 97.85 209.53 106.147 198.78 106.147C191.921 106.147 187.69 103.015 184.642 99.375V112.921C184.642 116.474 181.765 119.351 178.21 119.351C174.654 119.351 171.777 116.474 171.777 112.921V65.856Z" fill="#0D0F0E"/>
<path d="M254.256 79.061C253.494 73.304 250.109 69.409 244.692 69.409C239.358 69.409 235.887 73.22 234.872 79.061H254.256ZM245.962 106.318C232.332 106.318 222.26 96.754 222.26 82.869V82.7C222.26 69.749 231.485 59.082 244.692 59.082C259.842 59.082 266.529 71.526 266.529 80.922C266.529 84.646 263.905 87.102 260.52 87.102H235.04C236.311 92.943 240.374 95.991 246.13 95.991C249.686 95.991 252.647 94.889 255.271 92.943C256.202 92.265 257.049 91.926 258.403 91.926C261.28 91.926 263.397 94.127 263.397 97.006C263.397 98.697 262.637 99.967 261.704 100.814C257.727 104.199 252.563 106.318 245.962 106.318Z" fill="#0D0F0E"/>
<path d="M297.653 89.303V87.017C295.451 86.002 292.574 85.324 289.442 85.324C283.941 85.324 280.554 87.525 280.554 91.588V91.756C280.554 95.228 283.431 97.258 287.58 97.258C293.59 97.258 297.653 93.957 297.653 89.303ZM268.11 92.266V92.095C268.11 82.192 275.644 77.621 286.394 77.621C290.965 77.621 294.265 78.384 297.484 79.483V78.723C297.484 73.39 294.181 70.426 287.749 70.426C284.193 70.426 281.316 70.934 278.86 71.696C278.098 71.949 277.59 72.033 276.998 72.033C274.037 72.033 271.668 69.748 271.668 66.786C271.668 64.501 273.104 62.555 275.136 61.792C279.199 60.27 283.602 59.423 289.611 59.423C296.637 59.423 301.716 61.285 304.932 64.501C308.319 67.888 309.842 72.882 309.842 78.975V99.63C309.842 103.098 307.049 105.81 303.577 105.81C299.854 105.81 297.397 103.183 297.397 100.477V100.392C294.265 103.861 289.95 106.146 283.686 106.146C275.136 106.146 268.11 101.239 268.11 92.266Z" fill="#0D0F0E"/>
<path d="M343.293 89.303V87.017C341.092 86.002 338.215 85.324 335.083 85.324C329.582 85.324 326.195 87.525 326.195 91.588V91.756C326.195 95.228 329.072 97.258 333.221 97.258C339.23 97.258 343.293 93.957 343.293 89.303ZM313.751 92.266V92.095C313.751 82.192 321.285 77.621 332.035 77.621C336.606 77.621 339.906 78.384 343.125 79.483V78.723C343.125 73.39 339.822 70.426 333.39 70.426C329.834 70.426 326.957 70.934 324.501 71.696C323.738 71.949 323.231 72.033 322.639 72.033C319.678 72.033 317.309 69.748 317.309 66.786C317.309 64.501 318.745 62.555 320.777 61.792C324.84 60.27 329.243 59.423 335.252 59.423C342.278 59.423 347.356 61.285 350.573 64.501C353.96 67.888 355.483 72.882 355.483 78.975V99.63C355.483 103.098 352.69 105.81 349.218 105.81C345.495 105.81 343.038 103.183 343.038 100.477V100.392C339.906 103.861 335.591 106.146 329.327 106.146C320.777 106.146 313.751 101.239 313.751 92.266Z" fill="#0D0F0E"/>
<path d="M361.204 100.984C359.85 100.138 358.751 98.6119 358.751 96.5819C358.751 93.7049 360.949 91.504 363.829 91.504C364.76 91.504 365.691 91.7559 366.367 92.1799C370.685 94.8889 375.003 96.2449 378.642 96.2449C382.366 96.2449 384.06 94.8889 384.06 92.8579V92.6899C384.06 89.8949 379.658 88.9639 374.664 87.4409C368.315 85.5759 361.12 82.6149 361.12 73.8129V73.642C361.12 64.417 368.57 59.252 377.712 59.252C382.45 59.252 387.36 60.5229 391.762 62.7239C393.624 63.6549 394.81 65.3479 394.81 67.549C394.81 70.426 392.525 72.627 389.645 72.627C388.715 72.627 388.123 72.4559 387.276 72.0329C383.636 70.2579 380.165 69.1559 377.456 69.1559C374.324 69.1559 372.718 70.5099 372.718 72.2879V72.4559C372.718 74.9969 377.033 76.1829 381.943 77.8739C388.291 79.9909 395.657 83.0389 395.657 91.3329V91.504C395.657 101.576 388.123 106.147 378.303 106.147C372.718 106.147 366.706 104.54 361.204 100.984Z" fill="#0D0F0E"/>
<path d="M400.836 65.856C400.836 62.301 403.713 59.424 407.269 59.424C410.824 59.424 413.701 62.301 413.701 65.856V99.375C413.701 102.931 410.824 105.81 407.269 105.81C403.713 105.81 400.836 102.931 400.836 99.375V65.856ZM400.074 49.096C400.074 45.37 403.206 43.085 407.269 43.085C411.332 43.085 414.464 45.37 414.464 49.096V49.265C414.464 52.988 411.332 55.358 407.269 55.358C403.206 55.358 400.074 52.988 400.074 49.265V49.096Z" fill="#0D0F0E"/>
<path d="M424.552 95.99C426.837 95.99 428.531 97.681 428.531 99.969V101.663C428.531 103.946 426.837 105.723 424.552 105.723C422.182 105.723 420.489 103.946 420.489 101.663V99.969C420.489 97.681 422.182 95.99 424.552 95.99Z" fill="#0D0F0E"/>
<path d="M468.144 81.007C467.468 73.05 462.895 66.11 454.178 66.11C446.559 66.11 440.805 72.458 439.958 81.007H468.144ZM455.193 106.316C443.174 106.316 433.355 97.091 433.355 83.548V83.377C433.355 70.764 442.244 60.605 454.348 60.605C467.298 60.605 474.663 71.188 474.663 82.785C474.663 84.563 473.225 85.833 471.616 85.833H439.958C440.889 95.313 447.577 100.646 455.364 100.646C460.781 100.646 464.76 98.529 467.976 95.566C468.484 95.142 469.075 94.806 469.838 94.806C471.445 94.806 472.715 96.076 472.715 97.596C472.715 98.359 472.378 99.121 471.7 99.713C467.553 103.692 462.643 106.316 455.193 106.316Z" fill="#0D0F0E"/>
<path d="M513.481 81.007C512.805 73.05 508.232 66.11 499.514 66.11C491.896 66.11 486.142 72.458 485.295 81.007H513.481ZM500.529 106.316C488.511 106.316 478.692 97.091 478.692 83.548V83.377C478.692 70.764 487.58 60.605 499.685 60.605C512.634 60.605 520 71.188 520 82.785C520 84.563 518.562 85.833 516.952 85.833H485.295C486.226 95.313 492.913 100.646 500.7 100.646C506.117 100.646 510.096 98.529 513.313 95.566C513.82 95.142 514.412 94.806 515.174 94.806C516.781 94.806 518.051 96.076 518.051 97.596C518.051 98.359 517.715 99.121 517.036 99.713C512.889 103.692 507.979 106.316 500.529 106.316Z" fill="#0D0F0E"/>
<path d="M65.6531 107.521C62.4441 111.118 59.1161 112.518 55.8721 112.329L55.8311 113C58.8281 113.156 61.6641 113.036 64.3421 112.663C71.0531 111.73 76.8071 109.261 81.6251 105.662C77.9871 102.65 73.7641 99.729 69.3181 96.99C69.3181 100.984 68.1911 104.662 65.6531 107.521Z" fill="#68B42D"/>
<path d="M61.9089 0C10.7913 0 0 44.285 0 67.931C0 89.68 17.6829 111.706 26.648 128.928C28.311 132.126 43.3209 158.506 61.5239 156.79C68.3289 156.142 79.6789 153.476 86.9169 140.708C73.1419 135.179 61.8969 124.308 64.3429 112.663C61.6619 113.035 58.8279 113.155 55.8309 113.002C52.4189 112.836 48.8097 112.303 44.9941 111.372C-22.8095 94.789 0.2015 10.572 58.8819 10.572C89.4139 10.572 103.384 42.495 99.8919 70.706C102.616 70.706 105.103 70.793 107.363 70.88C109.099 63.542 111.025 58.249 112.283 59.726C113.41 61.042 116.828 65.036 120.837 69.979C123.255 69.056 125.193 67.37 126.828 64.399C131.677 55.579 116.241 0 61.9089 0Z" fill="#E83C6C"/>
<path d="M86.917 140.708C91.219 133.115 94.079 126.012 93.655 122.546C92.949 116.952 88.246 111.153 81.624 105.664C76.806 109.26 71.052 111.732 64.342 112.662C61.896 124.308 73.144 135.179 86.917 140.708Z" fill="#F9B031"/>
<path d="M69.3167 96.99C73.7627 99.73 77.9857 102.65 81.6227 105.662C92.1057 97.847 98.1557 84.733 99.8897 70.705C103.382 42.493 89.4147 10.573 58.8827 10.573C0.199509 10.573 -22.8089 94.789 44.9947 111.373C48.8103 112.304 52.4197 112.837 55.8317 113L55.8727 112.329C45.0559 111.697 35.0272 93.489 33.0428 79.833C31.8364 71.564 33.5886 64.966 39.891 64.966C55.3527 64.966 69.3087 82.942 69.3167 96.99Z" fill="#F9B031"/>
<path d="M93.6541 122.546C94.0781 126.012 91.221 133.118 86.916 140.708C96.416 144.518 107.131 145.794 115.385 143.024C125.22 138.675 113.964 127.971 118.889 121.579C127.232 110.744 124.016 117.998 125.22 102.843C116.341 104.503 106.009 104.801 104.224 102.715C102.227 100.386 104.532 82.8921 107.363 70.8791C105.101 70.7931 102.617 70.7061 99.89 70.7061C98.156 84.7341 92.106 97.846 81.623 105.664C88.247 111.152 92.9501 116.952 93.6541 122.546Z" fill="#68B42D"/>
<path d="M33.0439 79.834C35.0257 93.49 45.0569 111.695 55.871 112.328C59.118 112.517 62.444 111.119 65.653 107.52C68.19 104.661 69.318 100.986 69.318 96.991C56.195 88.901 41.0832 82.428 33.0439 79.834Z" fill="#EE711F"/>
<path d="M107.363 70.88C113.089 71.099 117.423 71.296 120.838 69.977C116.828 65.036 113.411 61.042 112.283 59.726C111.026 58.249 109.1 63.542 107.363 70.88Z" fill="#68B42D"/>
<path d="M107.363 70.8801C104.532 82.8931 102.227 100.387 104.224 102.713C106.009 104.802 116.341 104.504 125.22 102.843C132.295 101.525 138.457 99.3261 138.628 96.7811C138.88 92.9671 128.709 79.6591 120.838 69.9771C117.423 71.2961 113.089 71.0991 107.363 70.8801Z" fill="#00A7E7"/>
<path d="M33.044 79.834C41.0833 82.428 56.1951 88.901 69.3181 96.991C69.3101 82.943 55.3531 64.967 39.8922 64.967C33.5898 64.967 31.835 71.563 33.044 79.834Z" fill="#00A7E7"/>
<path d="M57.8738 15.799C111.971 15.633 110 124.355 45.3587 108.756C-15.8288 93.986 5.23618 15.962 57.8738 15.799Z" stroke="#1D1D1B" stroke-miterlimit="10"/>
<path d="M107.244 60.9609C110.33 64.5349 133.751 89.0959 133.422 94.4039C133.088 99.7089 102.908 104.05 99.9391 100.612C96.9701 97.1789 104.163 57.3829 107.244 60.9609Z" stroke="#1D1D1B" stroke-miterlimit="10"/>
<path d="M64.3897 105.15C45.7506 126.212 22.2219 66.0481 40.5271 65.9971C58.8277 65.9361 74.9337 93.2241 64.3897 105.15Z" stroke="#1D1D1B" stroke-miterlimit="10"/>
<path d="M119.294 100.677C118.215 114.646 118.983 109.897 111.314 119.91C106.797 125.812 117.891 135.104 108.832 139.144C90.2231 145.451 56.9001 128.45 60.6551 110.287" stroke="#1D1D1B" stroke-miterlimit="10"/>
<path d="M96.3119 70.314C109.649 70.276 116.979 69.967 121.43 61.818C125.878 53.669 106.912 4.08403 56.9369 7.23903C18.2397 9.68303 7.04794 49.711 7.10914 68.83C7.16524 87.944 21.1192 109.623 28.8091 123.187C35.3742 134.766 44.8367 150.389 60.7799 148.828C70.7859 147.851 91.3259 127.477 90.2389 118.92C88.1529 102.446 48.1371 81.226 33.9077 76.77" stroke="#1D1D1B" stroke-miterlimit="10"/>
</svg>
