<svg width="273" height="53" viewBox="0 0 273 53" fill="none" xmlns="http://www.w3.org/2000/svg">
<path d="M67.8511 26.1509L66.9989 24.96C67.3633 25.49 67.2459 26.1883 66.7519 26.5998C66.6716 26.6435 66.5913 26.7246 66.5048 26.7246L40.0607 37.4617C39.7767 37.5428 39.6161 37.8296 39.6161 38.1164V52.3017C39.6161 52.6696 39.9434 53.0001 40.3078 53.0001H48.1199C48.4843 53.0001 48.8116 52.6696 48.8116 52.3017V44.3891C48.8116 44.1023 48.9722 43.8591 49.2563 43.7344L59.6746 39.5131C66.3875 36.807 69.7656 30.9022 67.8511 26.1509Z" fill="#081B1F"/>
<path d="M67.4868 13.649C67.4435 13.6053 67.4435 13.5679 67.4435 13.5679C63.8246 8.61086 60.5268 7.75038 55.7654 9.34662L58.8161 13.5679L61.7866 17.7081L61.8299 17.7892L64.8003 21.9294L67.8511 26.1507C70.8648 22.0541 71.0254 18.6497 67.4868 13.649Z" fill="#081B1F"/>
<path d="M54.9934 10.3318C55.5245 9.96392 56.2162 10.0886 56.6238 10.575L55.7716 9.38404C54.4315 8.23675 52.7579 7.6631 50.9731 7.61945C47.558 7.53839 43.6488 9.42145 40.6412 13.1127L16.1363 42.5496C16.0931 42.6306 16.0128 42.6743 15.9325 42.7117C15.4014 43.0796 14.7097 42.9549 14.3021 42.4685L15.1544 43.6595C16.4945 44.8067 18.1681 45.3804 19.9528 45.424C23.368 45.5051 27.2771 43.622 30.2847 39.9308L54.7896 10.4939C54.8699 10.4129 54.9131 10.3692 54.9934 10.3318Z" fill="#081B1F"/>
<path d="M3.93315 28.0775C3.56878 27.5475 3.68612 26.8492 4.18017 26.4376C4.26046 26.394 4.34074 26.3129 4.4272 26.3129L30.8651 15.5758C31.1492 15.4947 31.3098 15.2079 31.3098 14.9211V0.698353C31.3098 0.330471 30.9825 0 30.6181 0H22.8059C22.4415 0 22.1142 0.330471 22.1142 0.698353V8.61094C22.1142 8.89776 21.9537 9.14094 21.6696 9.26565L11.2513 13.4869C4.54454 16.1494 1.12323 22.0916 3.03768 26.8492L3.93315 28.0775Z" fill="#081B1F"/>
<path d="M9.13925 35.2917L9.09602 35.2106L6.12553 31.0704L3.07477 26.8491C0.0610522 30.9083 -0.136568 34.3502 3.43913 39.3509C3.43913 39.3509 3.43913 39.3945 3.48236 39.3945C3.48236 39.3945 3.48236 39.4382 3.52559 39.4382C7.14451 44.3952 10.4423 45.2557 15.2037 43.6595L12.153 39.4382L9.13925 35.2979V35.2917Z" fill="#081B1F"/>
<path d="M88.1134 15.6632C90.2687 15.6632 91.5718 14.229 91.5718 11.9719C91.5718 9.92045 90.349 8.65469 88.1134 8.65469H85.7111V9.14728H86.4027V15.6257H88.1134V15.6694V15.6632ZM86.4027 21.1939C86.4027 22.2601 86.8906 22.7901 87.9467 22.8337L88.558 22.8774V23.6568H80.505V22.8774L81.1164 22.8337C82.1354 22.7527 82.6603 22.2165 82.6603 21.1939V10.0826C82.6603 9.01633 82.1724 8.48633 81.1164 8.44269L80.505 8.39904V7.61963H89.7005C93.2392 7.61963 95.4377 9.34057 95.4377 11.922C95.4377 14.6655 93.1589 16.6359 89.7005 16.6359H85.674V17.1285H86.3657V21.1876H86.4089L86.4027 21.1939Z" fill="#081B1F"/>
<path d="M99.0196 16.5983H103.497C103.497 14.7153 102.645 13.2375 101.298 13.2375C99.8718 13.2375 99.1802 14.7153 99.0196 16.5983ZM98.0809 17.5024V17.995H98.9764C99.1369 20.4143 100.403 22.0542 102.719 22.0542C103.855 22.0542 104.998 21.6053 105.689 20.2896L105.85 20.3707C105.078 22.5842 103.207 23.9373 101.212 23.9373C97.9142 23.9373 95.5551 21.4806 95.5551 18.1197C95.5551 14.7589 97.9141 12.0964 101.335 12.0964C104.306 12.0964 106.301 14.391 106.177 17.5087H98.0809V17.5024Z" fill="#081B1F"/>
<path d="M107.764 8.3615L107.073 8.03103L112.161 6.84009V21.5117C112.161 22.4159 112.489 22.9084 113.217 22.9459L113.829 22.9895V23.6879H107.357V22.9895L107.968 22.9459C108.66 22.9022 109.024 22.4159 109.024 21.5117V9.88291C108.944 9.14715 108.74 8.86032 107.764 8.36773V8.3615Z" fill="#081B1F"/>
<path d="M122.129 16.3989C122.129 14.7153 121.517 13.2438 120.134 13.2438C119.115 13.2438 118.306 14.229 118.306 16.2368C118.306 18.2445 119.158 19.3918 120.301 19.3918C121.239 19.3482 122.129 18.4877 122.129 16.3989ZM124.08 26.4003C124.08 25.6645 123.636 25.3341 122.777 25.2966L117.491 24.8851C117.046 25.1719 116.639 25.6209 116.639 26.2818C116.639 27.2234 117.658 28.2522 120.461 28.2522C123.673 28.2522 124.08 27.0238 124.08 26.4065V26.4003ZM114.113 26.525C114.113 25.4588 115.249 25.0472 116.515 24.5172L117.614 24.0683L117.127 23.8625L116.07 24.3115C115.626 23.8999 115.422 23.3263 115.422 22.7526C115.422 21.1564 117.417 20.1276 118.757 19.6786L118.269 19.3918L117.293 19.7223C115.99 19.0239 115.138 17.8392 115.138 16.3615C115.138 13.9858 117.46 12.1402 120.227 12.1402C120.999 12.1402 121.734 12.2649 122.382 12.5081C123.277 11.4855 124.296 10.7061 125.556 10.7061C126.816 10.7061 127.508 11.5665 127.508 12.3459C127.508 13.1253 126.94 13.6553 126.248 13.6553C125.513 13.6553 124.704 12.957 125.068 12.0591H125.396V11.6476C124.661 11.5665 123.969 11.8908 123.037 12.7512C124.42 13.4496 125.272 14.6779 125.272 16.1557C125.272 18.5313 122.95 20.377 120.183 20.377C119.696 20.377 119.208 20.3333 118.757 20.2523C118.022 20.5391 117.701 20.9506 117.701 21.2749C117.701 21.6864 117.905 22.0106 119.004 22.1353L123.401 22.4658C125.352 22.6279 126.495 23.4884 126.495 25.2966C126.495 26.7308 125.439 29.1501 119.943 29.1501C115.836 29.2311 114.125 28.0028 114.125 26.525H114.113Z" fill="#081B1F"/>
<path d="M131.565 20.0838C131.565 21.3122 132.096 22.1726 133.356 22.1726C134.252 22.1726 135.104 21.6426 135.635 20.7385V15.2889C135.635 14.5095 135.431 14.2226 134.412 13.73L133.721 13.3996L138.809 12.0465V21.1438C138.809 21.8796 138.97 22.1664 139.909 22.6216L140.724 23.0331L135.635 23.8936V22.4969L136.45 21.4306V20.6949L136.006 21.3122C135.11 22.5031 133.807 23.8936 131.775 23.8936C129.743 23.8936 128.397 22.5842 128.397 20.4891V15.2826C128.397 14.5032 128.193 14.2164 127.174 13.7238L126.483 13.3933L131.571 12.0403V20.0713L131.565 20.0838Z" fill="#081B1F"/>
<path d="M141.699 8.3615L141.008 8.03103L146.097 6.84009V21.5117C146.097 22.4159 146.424 22.9084 147.153 22.9459L147.764 22.9895V23.6879H141.292V22.9895L141.903 22.9459C142.595 22.9022 142.959 22.4159 142.959 21.5117V9.88291C142.916 9.14715 142.712 8.86032 141.699 8.36773V8.3615Z" fill="#081B1F"/>
<path d="M150.407 7.25781H153.581V10.2882H150.407V7.25781ZM153.581 12.0528V21.4805C153.581 22.3846 153.946 22.8336 154.718 22.9146L155.206 22.9583V23.6566H148.733V22.9583L149.265 22.9146C149.956 22.8336 150.364 22.3846 150.364 21.4805V15.2889C150.364 14.5531 150.203 14.2663 149.308 13.8111L148.456 13.3996L153.581 12.0465V12.0528Z" fill="#081B1F"/>
<path d="M156.83 13.8111L155.978 13.3996L161.066 12.0465V13.6053L160.251 14.6279V15.3637L160.578 14.9522C161.801 13.3933 163.141 12.0403 164.932 12.0403C167.007 12.0403 168.31 13.3123 168.31 15.4448V21.4306C168.31 22.2911 168.755 22.7837 169.447 22.8648L169.978 22.9084V23.6068H163.672V22.9084L164.16 22.8648C164.809 22.7837 165.136 22.3348 165.136 21.4306V15.8563C165.136 14.5843 164.444 13.8485 163.308 13.8485C162.456 13.8485 161.678 14.3785 161.072 15.2452V21.3932C161.072 22.2537 161.4 22.7463 162.048 22.8273L162.536 22.871V23.5693H156.231V22.871L156.762 22.8273C157.454 22.7463 157.861 22.2973 157.861 21.3932V15.2016C157.904 14.5469 157.738 14.2975 156.842 13.8049L156.83 13.8111Z" fill="#081B1F"/>
<path d="M171.478 13.8111L170.626 13.3996L175.715 12.0465V13.6053L174.9 14.6279V15.3637L175.227 14.9522C176.45 13.3933 177.79 12.0403 179.581 12.0403C181.656 12.0403 182.959 13.3123 182.959 15.4448V21.4306C182.959 22.2911 183.404 22.7837 184.095 22.8648L184.626 22.9084V23.6068H178.321V22.9084L178.809 22.8648C179.457 22.7837 179.785 22.3348 179.785 21.4306V15.8563C179.785 14.5843 179.093 13.8485 177.957 13.8485C177.104 13.8485 176.326 14.3785 175.721 15.2452V21.3932C175.721 22.2537 176.048 22.7463 176.697 22.8273L177.185 22.871V23.5693H170.879V22.871L171.41 22.8273C172.102 22.7463 172.51 22.2973 172.51 21.3932V15.2016C172.553 14.5469 172.386 14.2975 171.491 13.8049L171.478 13.8111Z" fill="#081B1F"/>
<path d="M190.116 22.1353C190.969 22.1353 191.784 21.6427 192.352 20.8259V17.914L190.357 18.6124C189.097 19.0613 188.566 19.635 188.566 20.5827C188.566 21.5305 189.097 22.1415 190.11 22.1415L190.116 22.1353ZM193.21 21.3995V20.5827L192.519 21.4868C191.419 22.9646 190.197 23.9061 188.492 23.9061C186.621 23.9061 185.522 22.921 185.522 21.2C185.522 19.4791 187.029 18.7807 188.98 18.1697L192.358 17.066V15.5883C192.358 14.3163 191.71 13.3747 190.283 13.3747C188.857 13.3747 188.332 14.0294 188.332 14.7278H188.863C189.067 16.1619 188.418 16.8977 187.479 16.8977C186.541 16.8977 186.016 16.1993 186.016 15.3388C186.016 13.5368 188.091 12.1401 190.901 12.1401C194.075 12.1401 195.539 13.6179 195.539 16.1557V21.3621C195.539 21.9794 195.903 22.3037 196.391 22.3037C196.638 22.3037 196.959 22.26 197.286 21.9732L197.367 22.0168C196.836 23.2888 195.619 23.8999 194.557 23.8999C193.334 23.8999 192.605 23.4073 192.438 22.4221L193.21 21.3995Z" fill="#081B1F"/>
<path d="M88.3172 36.7322C90.0649 36.7322 91.368 35.6286 91.368 33.6146C91.368 31.7315 90.3119 30.3348 88.274 30.3348H85.5073V30.8648H86.4027V36.726H88.3172V36.7322ZM86.4027 42.8802C86.4027 43.9464 86.8906 44.4764 87.9467 44.5201L88.558 44.5637V45.3431H80.505V44.5637L81.1164 44.5201C82.1354 44.439 82.6603 43.9028 82.6603 42.8802V31.7689C82.6603 30.7027 82.1724 30.1727 81.1164 30.129L80.505 30.0854V29.2686H89.54C93.1589 29.2686 95.1536 31.1142 95.1536 33.4898C95.1536 35.3729 93.5233 36.7696 91.7756 37.3433C92.9983 37.6301 93.8506 38.4095 94.2952 39.4321L96.0862 43.616C96.3702 44.2707 96.8581 44.4328 97.346 44.5201L97.6301 44.5637V45.2995H92.6649L90.4293 39.2762C89.9846 38.1726 89.4906 37.7174 88.4778 37.7174H85.5073V38.2474H86.4027V42.8802Z" fill="#081B1F"/>
<path d="M99.8718 28.9006H103.046V31.931H99.8718V28.9006ZM103.046 33.7392V43.167C103.046 44.0711 103.41 44.52 104.182 44.6011L104.67 44.6448V45.3431H98.1982V44.6448L98.7293 44.6011C99.421 44.52 99.8286 44.0711 99.8286 43.167V36.9753C99.8286 36.2396 99.668 35.9528 98.7725 35.4976L97.9203 35.086L103.046 33.733V33.7392Z" fill="#081B1F"/>
<path d="M107.357 28.9006H110.531V31.931H107.357V28.9006ZM110.568 33.7392V43.167C110.568 44.0711 110.932 44.52 111.704 44.6011L112.192 44.6448V45.3431H105.72V44.6448L106.251 44.6011C106.943 44.52 107.351 44.0711 107.351 43.167V36.9753C107.351 36.2396 107.19 35.9528 106.294 35.4976L105.442 35.086L110.568 33.733V33.7392Z" fill="#081B1F"/>
<path d="M120.542 38.0416C120.542 36.3581 119.93 34.8866 118.547 34.8866C117.528 34.8866 116.719 35.8718 116.719 37.8795C116.719 39.8873 117.571 41.0346 118.714 41.0346C119.652 41.0346 120.542 40.1305 120.542 38.0416ZM122.493 48.0431C122.493 47.3073 122.048 46.9768 121.19 46.9394L115.904 46.5279C115.459 46.8147 115.051 47.2636 115.051 47.9246C115.051 48.8661 116.07 49.8949 118.874 49.8949C122.048 49.9386 122.493 48.704 122.493 48.0493V48.0431ZM112.526 48.2052C112.526 47.1389 113.662 46.7274 114.928 46.1974L116.027 45.7485L115.539 45.5427L114.483 45.9916C114.039 45.5801 113.835 45.0065 113.835 44.4328C113.835 42.8366 115.83 41.8078 117.17 41.3588L116.682 41.072L115.706 41.4025C114.403 40.7041 113.551 39.5194 113.551 38.0416C113.551 35.666 115.873 33.8204 118.64 33.8204C119.411 33.8204 120.146 33.9451 120.795 34.1882C121.69 33.1656 122.709 32.3862 123.969 32.3862C125.229 32.3862 125.921 33.2467 125.921 34.0261C125.921 34.8055 125.352 35.3355 124.661 35.3355C123.926 35.3355 123.117 34.6372 123.481 33.7393H123.809V33.3278C123.074 33.2467 122.382 33.5709 121.449 34.4314C122.833 35.1298 123.685 36.3581 123.685 37.8359C123.685 40.2115 121.363 42.0572 118.596 42.0572C118.108 42.0572 117.621 42.0135 117.17 41.9325C116.435 42.2193 116.114 42.6308 116.114 42.9551C116.114 43.3666 116.317 43.6908 117.417 43.8155L121.814 44.146C123.765 44.3081 124.908 45.1686 124.908 46.9768C124.908 48.4109 123.852 50.8302 118.355 50.8302C114.249 50.8739 112.538 49.6829 112.538 48.2052H112.526Z" fill="#081B1F"/>
<path d="M126.927 28.9006H130.102V31.931H126.927V28.9006ZM130.102 33.7392V43.167C130.102 44.0711 130.466 44.52 131.238 44.6011L131.726 44.6448V45.3431H125.254V44.6448L125.785 44.6011C126.477 44.52 126.884 44.0711 126.884 43.167V36.9753C126.884 36.2396 126.724 35.9528 125.828 35.4976L124.976 35.086L130.102 33.733V33.7392Z" fill="#081B1F"/>
<path d="M140.069 38.0416C140.069 36.3581 139.458 34.8866 138.074 34.8866C137.055 34.8866 136.246 35.8718 136.246 37.8795C136.246 39.8873 137.099 41.0346 138.241 41.0346C139.18 41.0346 140.069 40.1305 140.069 38.0416ZM142.021 48.0431C142.021 47.3073 141.576 46.9768 140.717 46.9394L135.431 46.5279C134.986 46.8147 134.579 47.2636 134.579 47.9246C134.579 48.8661 135.598 49.8949 138.402 49.8949C141.613 49.9386 142.021 48.704 142.021 48.0493V48.0431ZM132.09 48.2052C132.09 47.1389 133.226 46.7274 134.492 46.1974L135.592 45.7485L135.104 45.5427L134.048 45.9916C133.603 45.5801 133.399 45.0065 133.399 44.4328C133.399 42.8366 135.394 41.8078 136.734 41.3588L136.246 41.072L135.271 41.4025C133.967 40.7041 133.115 39.5194 133.115 38.0416C133.115 35.666 135.437 33.8204 138.204 33.8204C138.976 33.8204 139.711 33.9451 140.359 34.1882C141.255 33.1656 142.274 32.3862 143.534 32.3862C144.793 32.3862 145.485 33.2467 145.485 34.0261C145.485 34.8055 144.917 35.3355 144.225 35.3355C143.49 35.3355 142.681 34.6372 143.046 33.7393H143.373V33.3278C142.638 33.2467 141.946 33.5709 141.014 34.4314C142.397 35.1298 143.249 36.3581 143.249 37.8359C143.249 40.2115 140.927 42.0572 138.161 42.0572C137.673 42.0572 137.185 42.0135 136.734 41.9325C135.999 42.2193 135.678 42.6308 135.678 42.9551C135.678 43.3666 135.882 43.6908 136.981 43.8155L141.378 44.146C143.33 44.3081 144.472 45.1686 144.472 46.9768C144.472 48.4109 143.416 50.8302 137.92 50.8302C133.813 50.8739 132.102 49.6829 132.102 48.2052H132.09Z" fill="#081B1F"/>
<path d="M152.396 28.9006H155.409V31.7689H152.396V28.9006ZM148.165 28.9006H151.179V31.7689H148.165V28.9006ZM149.505 41.7329C149.505 42.9612 150.037 43.8217 151.296 43.8217C152.192 43.8217 153.044 43.2917 153.575 42.3876V36.9379C153.575 36.1585 153.371 35.8717 152.352 35.3791L151.661 35.0486L156.749 33.6956V42.7929C156.749 43.5286 156.91 43.8155 157.849 44.2706L158.664 44.6822L153.575 45.5426V44.1459L154.39 43.0797V42.3439L153.946 42.9612C153.05 44.1522 151.747 45.5426 149.715 45.5426C147.684 45.5426 146.337 44.2332 146.337 42.1382V36.9317C146.337 36.1523 146.134 35.8655 145.115 35.3729L144.423 35.0424L149.512 33.6893V41.7204L149.505 41.7329Z" fill="#081B1F"/>
<path d="M159.275 44.6386L159.806 44.5949C160.498 44.5139 160.906 44.0649 160.906 43.1608V36.9692C160.906 36.2334 160.745 35.9466 159.85 35.4914L158.997 35.0799L164.086 33.7268V35.242L163.271 36.3082V37.0066L163.716 36.4766C165.056 34.8367 166.198 33.7705 167.742 33.7705C169.169 33.7705 170.262 34.4688 170.713 35.6161L170.101 36.3519V37.1313L170.589 36.514C171.849 34.8741 173.072 33.7705 174.659 33.7705C176.654 33.7705 177.913 35.0425 177.913 37.1749V43.1608C177.913 44.0213 178.358 44.5139 179.05 44.5949L179.581 44.6386V45.3369H173.399V44.6386L173.887 44.5949C174.455 44.5513 174.739 44.0649 174.739 43.1608V37.5865C174.739 36.3145 174.091 35.5787 173.028 35.5787C172.417 35.5787 171.688 35.9466 171.034 36.9754V43.167C171.034 44.0275 171.361 44.5637 171.886 44.6012L172.374 44.6448V45.3432H166.513V44.6448L167.001 44.6012C167.569 44.5575 167.853 44.0712 167.853 43.167V37.5927C167.853 36.3207 167.205 35.5849 166.143 35.5849C165.494 35.5849 164.759 35.9965 164.148 36.938V43.1296C164.148 43.9901 164.432 44.5263 165 44.5637L165.488 44.6074V45.3057H159.306V44.651H159.263L159.275 44.6386Z" fill="#081B1F"/>
<path d="M181.081 35.4976L180.229 35.0861L185.318 33.733V35.2919L184.503 36.3145V37.0502L184.83 36.6387C186.053 35.0799 187.393 33.7268 189.184 33.7268C191.259 33.7268 192.562 34.9988 192.562 37.1313V43.1172C192.562 43.9776 193.007 44.4702 193.698 44.5513L194.229 44.5949V45.2933H187.924V44.5949L188.412 44.5513C189.06 44.4702 189.388 44.0213 189.388 43.1172V37.5428C189.388 36.2708 188.696 35.535 187.56 35.535C186.707 35.535 185.929 36.065 185.324 36.9317V43.0797C185.324 43.9402 185.651 44.4328 186.3 44.5139L186.788 44.5575V45.2559H180.482V44.5575L181.014 44.5139C181.705 44.4328 182.113 43.9839 182.113 43.0797V36.8881C182.156 36.2334 181.989 35.9466 181.094 35.4914L181.081 35.4976Z" fill="#081B1F"/>
<path d="M199.72 43.7779C200.572 43.7779 201.387 43.2853 201.955 42.4685V39.5566L199.96 40.2549C198.701 40.7039 198.169 41.2775 198.169 42.2253C198.169 43.1731 198.701 43.7841 199.713 43.7841L199.72 43.7779ZM202.814 43.0421V42.2253L202.122 43.1294C201.023 44.6072 199.8 45.5487 198.095 45.5487C196.224 45.5487 195.125 44.5635 195.125 42.8426C195.125 41.1217 196.632 40.4233 198.583 39.8122L201.961 38.7086V37.2308C201.961 35.9588 201.313 35.0173 199.886 35.0173C198.46 35.0173 197.935 35.672 197.935 36.3704H198.466C198.67 37.8045 198.021 38.5402 197.083 38.5402C196.144 38.5402 195.619 37.8419 195.619 36.9814C195.619 35.1794 197.694 33.7827 200.504 33.7827C203.678 33.7827 205.142 35.2605 205.142 37.7982V43.0047C205.142 43.622 205.506 43.9462 205.994 43.9462C206.241 43.9462 206.562 43.9026 206.889 43.6158L206.97 43.6594C206.439 44.9314 205.222 45.5425 204.16 45.5425C202.937 45.5425 202.208 45.0499 202.042 44.0647L202.814 43.0421Z" fill="#081B1F"/>
<path d="M212.25 43.7779C213.102 43.7779 213.917 43.2853 214.486 42.4685V39.5566L212.491 40.2549C211.231 40.7039 210.7 41.2775 210.7 42.2253C210.7 43.1731 211.231 43.7841 212.244 43.7841L212.25 43.7779ZM215.344 43.0421V42.2253L214.652 43.1294C213.553 44.6072 212.33 45.5487 210.626 45.5487C208.755 45.5487 207.655 44.5635 207.655 42.8426C207.655 41.1217 209.162 40.4233 211.114 39.8122L214.492 38.7086V37.2308C214.492 35.9588 213.843 35.0173 212.417 35.0173C210.99 35.0173 210.465 35.672 210.465 36.3704H210.996C211.2 37.8045 210.552 38.5402 209.613 38.5402C208.674 38.5402 208.149 37.8419 208.149 36.9814C208.149 35.1794 210.224 33.7827 213.034 33.7827C216.209 33.7827 217.672 35.2605 217.672 37.7982V43.0047C217.672 43.622 218.037 43.9462 218.524 43.9462C218.771 43.9462 219.093 43.9026 219.42 43.6158L219.5 43.6594C218.969 44.9314 217.752 45.5425 216.69 45.5425C215.467 45.5425 214.739 45.0499 214.572 44.0647L215.344 43.0421Z" fill="#081B1F"/>
<path d="M222.786 36.439C222.786 37.0563 223.07 37.5052 223.922 37.8357L226.645 38.7398C228.517 39.3571 229.455 40.5044 229.455 42.0196C229.455 44.0274 227.664 45.5862 225.225 45.5862C223.681 45.5862 222.298 44.7694 221.52 43.5784V44.3952C221.804 44.6821 222.254 45.0499 222.335 45.0936L220.42 45.7109L220.34 41.4459H221.279L221.847 42.3875C222.582 43.6595 223.595 44.4389 225.058 44.4389C226.157 44.4389 226.806 43.8652 226.806 43.0048C226.806 42.3875 226.479 41.9822 225.466 41.6517L223.063 40.8723C221.192 40.255 220.254 39.0703 220.254 37.4678C220.254 35.4164 221.841 33.9449 224.039 33.9449C225.342 33.9449 226.645 34.7617 227.374 35.8716V35.0548C227.17 34.849 226.682 34.3564 226.602 34.319L228.517 33.9075L228.597 37.9666H227.621L227.133 37.1062C226.442 35.9152 225.67 35.1358 224.41 35.1358C223.354 35.0922 222.779 35.7095 222.779 36.4452L222.786 36.439Z" fill="#081B1F"/>
<path d="M232.185 28.9006H235.359V31.931H232.185V28.9006ZM235.359 33.7392V43.167C235.359 44.0711 235.724 44.52 236.496 44.6011L236.983 44.6448V45.3431H230.511V44.6448L231.042 44.6011C231.734 44.52 232.142 44.0711 232.142 43.167V36.9753C232.142 36.2396 231.981 35.9528 231.086 35.4976L230.233 35.086L235.359 33.733V33.7392Z" fill="#081B1F"/>
<path d="M242.721 41.7266C242.721 42.955 243.252 43.8155 244.512 43.8155C245.407 43.8155 246.259 43.2855 246.79 42.3813V36.9317C246.79 36.1523 246.587 35.8655 245.568 35.3729L244.876 35.0424L249.965 33.6893V42.7866C249.965 43.5224 250.125 43.8092 251.064 44.2644L251.879 44.6759L246.79 45.5364V44.1397L247.606 43.0735V42.3377L247.161 42.955C246.265 44.1459 244.962 45.5364 242.931 45.5364C240.899 45.5364 239.553 44.227 239.553 42.1319V36.9255C239.553 36.146 239.349 35.8592 238.33 35.3666L237.638 35.0362L242.727 33.6831V41.7142L242.721 41.7266Z" fill="#081B1F"/>
<path d="M252.484 44.6386L253.015 44.5949C253.707 44.5139 254.115 44.0649 254.115 43.1608V36.9692C254.115 36.2334 253.954 35.9466 253.059 35.4914L252.206 35.0799L257.295 33.7268V35.242L256.48 36.3082V37.0066L256.924 36.4766C258.265 34.8367 259.407 33.7705 260.951 33.7705C262.378 33.7705 263.471 34.4688 263.921 35.6161L263.31 36.3519V37.1313L263.798 36.514C265.058 34.8741 266.281 33.7705 267.868 33.7705C269.862 33.7705 271.122 35.0425 271.122 37.1749V43.1608C271.122 44.0213 271.567 44.5139 272.259 44.5949L272.79 44.6386V45.3369H266.608V44.6386L267.096 44.5949C267.664 44.5513 267.948 44.0649 267.948 43.1608V37.5865C267.948 36.3145 267.3 35.5787 266.237 35.5787C265.626 35.5787 264.897 35.9466 264.243 36.9754V43.167C264.243 44.0275 264.57 44.5637 265.095 44.6012L265.583 44.6448V45.3432H259.722V44.6448L260.21 44.6012C260.778 44.5575 261.062 44.0712 261.062 43.167V37.5927C261.062 36.3207 260.414 35.5849 259.352 35.5849C258.703 35.5849 257.968 35.9965 257.357 36.938V43.1296C257.357 43.9901 257.641 44.5263 258.209 44.5637L258.697 44.6074V45.3057H252.515V44.651H252.472L252.484 44.6386Z" fill="#081B1F"/>
</svg>
